<?xml version="1.0" encoding="UTF-8"?><svg xmlns="http://www.w3.org/2000/svg" viewBox="0 0 113.34 112.27"><defs><style>.d{fill:#a81a39;}</style></defs><g id="a"/><g id="b"><g id="c"><path class="d" d="M96.74,101.93c-6.71,10.72-23.32,11.64-32.7,4.37-6.48-5.03-7.89-12.73-8.24-15.22-.17,1.42-1.63,11.96-11.06,17.71-8.69,5.3-20.65,4.39-26.61-1.83-7.72-8.06-6.49-26.18,8.13-37.34C8.24,67.9-2.04,53.27,.34,42.77c1.92-8.46,12.37-15.59,22.79-14.8,7.73,.58,12.83,5.33,14.42,6.94-.68-2.41-3.11-12.03,2.04-21.74C40.92,10.66,46.28,.57,56.06,.02c9.17-.51,16.37,7.7,19.13,14.64,3.85,9.7-.32,18.61-1.13,20.24,2.8-1.66,9.89-5.35,19.09-4.44,2.53,.25,16.06,1.58,19.46,10.81,3.18,8.64-4.73,18.12-9.98,22.29-6.72,5.33-14.19,5.98-17.29,6.07,13.44,6.27,17.72,22.2,11.4,32.31Z"/></g></g></svg>