<?xml version="1.0" encoding="UTF-8"?><svg xmlns="http://www.w3.org/2000/svg" viewBox="0 0 933.78 330.79"><defs><style>.d{fill:#a81a39;}</style></defs><g id="a"/><g id="b"><g id="c"><g><path class="d" d="M181.71,263.59c-.7,.92,.11-.1,.19-.25-.15,.24-.38,.49-.56,.7-.32,.41-.65,.81-.98,1.21-.7,.85-1.41,1.68-2.14,2.5-1.41,1.6-2.88,3.15-4.39,4.65s-3.07,2.93-4.67,4.32c-.7,.61-1.42,1.21-2.14,1.8-.36,.29-.71,.58-1.07,.86-.19,.15-.44,.31-.62,.48,.38-.37,1.04-.8,.24-.19-5.67,4.3-11.81,7.97-18.25,11-.72,.34-1.44,.67-2.17,.99-.33,.15-.67,.29-1,.44-1.24,.54,1.52-.63,0,0-1.35,.56-2.71,1.09-4.08,1.59-2.43,.89-4.9,1.69-7.39,2.41-3.42,.98-6.89,1.79-10.4,2.41-.45,.08-.9,.15-1.35,.23-.55,.09-1.1,.17-1.66,.25-1.2,.18,.16,0,.32-.04-.37,.1-.79,.1-1.17,.14-2.28,.26-4.56,.44-6.85,.52-4.3,.17-8.61,.02-12.89-.42-.48-.05-.95-.1-1.43-.16-.25-.03-.55-.1-.81-.1,.11,0,1.65,.23,.53,.07-.99-.15-1.97-.3-2.96-.47-1.97-.35-3.92-.75-5.86-1.22-3.5-.84-6.94-1.89-10.33-3.11-1.56-.56-3.08-1.2-4.63-1.8,.02,0,1.6,.69,.68,.28-.14-.06-.29-.12-.43-.19-.33-.14-.67-.29-1-.44-.74-.33-1.47-.67-2.2-1.01-2.46-1.17-4.88-2.43-7.25-3.78-3.19-1.83-6.28-3.82-9.29-5.94-.49-.35-.98-.7-1.47-1.05-.33-.24-.67-.49-1-.74-.25-.19-.99-.76,.06,.05s.2,.15-.07-.06c-2.13-1.67-4.18-3.44-6.16-5.28-2.63-2.44-5.14-5.01-7.53-7.69-1.39-1.56-2.73-3.16-4.03-4.79-.18-.23-.36-.46-.54-.69-.11-.13-.58-.74-.03-.04,.62,.78-.43-.57-.58-.77-.74-.99-1.46-1.99-2.16-3-1.39-2-2.71-4.05-3.97-6.13l.89,3.29c0-2.68-2.02-5.15-3.27-7.43-1.03-1.88-2-3.8-2.92-5.74-.59-1.26-1.15-2.53-1.71-3.81-.33-.77,.73,1.76,.41,.97-.06-.15-.12-.29-.18-.44-.14-.35-.28-.69-.42-1.04-1.1-2.77-2.04-5.59-2.81-8.47-.93-3.49-1.61-7.03-2.12-10.6-.02-.15-.03-.32-.06-.47-.05-.23,.23,1.81,.15,1.14-.03-.24-.06-.48-.09-.72-.07-.53-.13-1.07-.19-1.6-.12-1.12-.23-2.24-.33-3.37-.21-2.48-.35-4.97-.44-7.46-.51-13.85,.38-27.75,1.62-41.54,1.44-15.95,3.03-31.9,4.93-47.79,.2-1.7,.41-3.4,.63-5.1,.1-.76,.2-1.52,.3-2.29,.05-.38,.1-.75,.15-1.13-.27,2.11-.05,.37,.02-.13,.41-3.02,.86-6.03,1.34-9.04,.87-5.45,1.88-10.89,3.14-16.27,1.06-4.53,2.31-9.02,3.89-13.39,.36-1,.74-1.99,1.14-2.97,.09-.22,.18-.44,.27-.66-.86,2.16-.45,1.07-.24,.58,.2-.46,.41-.92,.62-1.38,.81-1.76,1.7-3.48,2.68-5.15,.92-1.57,1.94-3.08,3.02-4.55,.64-.86-.37,.63-.52,.67,.1-.02,.31-.39,.38-.48,.3-.37,.6-.73,.91-1.09,.55-.63,1.11-1.24,1.69-1.84s1.22-1.21,1.87-1.78c.46-.41,.93-.8,1.4-1.2,.94-.8-.82,.57,.18-.15,.45-.32,.9-.65,1.36-.96,1.72-1.15,3.52-2.16,5.37-3.08,.44-.21,.88-.42,1.32-.63,.22-.1,1.6-.66,.79-.37s.81-.32,1.06-.42c.5-.19,1-.38,1.5-.56,3.33-1.19,6.77-2.08,10.25-2.69,.41-.07,.82-.14,1.22-.2,.25-.04,1.65-.24,.57-.09s.32-.03,.58-.06c.55-.06,1.1-.12,1.65-.16,1.73-.15,3.46-.22,5.19-.23s3.6,.07,5.39,.22c.41,.04,.82,.08,1.23,.12,.22,.02,1.91,.23,.77,.09s.3,.06,.56,.1c.47,.08,.95,.16,1.42,.25,1.74,.33,3.46,.75,5.16,1.26,.78,.23,1.55,.49,2.31,.76,.44,.16,.89,.32,1.33,.5,1.38,.54-.87-.41,.12,.04,1.59,.72,3.15,1.5,4.65,2.39,.69,.41,1.37,.84,2.03,1.29,.33,.23,.66,.46,.99,.69,.22,.16,.43,.32,.65,.48,.74,.54-.13,.05-.25-.2,.14,.29,.78,.65,1.03,.87,.35,.31,.69,.62,1.02,.95,.72,.69,1.4,1.42,2.07,2.16,.56,.61,1.08,1.24,1.61,1.88,.76,.93-.71-.98,0,0,.29,.4,.57,.79,.85,1.19,1.04,1.51,1.99,3.09,2.83,4.72,.43,.82,.82,1.66,1.21,2.51,.51,1.11-.43-1.11,.01,.03,.18,.47,.37,.94,.54,1.41,.64,1.77,1.17,3.57,1.59,5.41,.19,.85,.36,1.7,.5,2.56,.03,.21,.05,.44,.1,.65-.39-1.44-.11-.91-.06-.44,.05,.51,.11,1.01,.15,1.52,.15,1.89,.18,3.79,.07,5.68-.05,.88-.14,1.75-.24,2.62-.02,.2-.06,.4-.07,.59,0,.07,.3-1.46,.12-.85-.12,.39-.15,.83-.22,1.23-.44,2.47-1.23,4.92-2.16,7.24-.05,.14-.11,.27-.17,.41-.28,.72,.63-1.44,.31-.74-.12,.27-.24,.54-.36,.81-.27,.58-.55,1.15-.84,1.72-.58,1.14-1.21,2.26-1.88,3.35s-1.38,2.18-2.13,3.23c-.35,.49-.7,.97-1.06,1.45-.12,.16-.25,.32-.36,.48-.09,.12,.99-1.25,.56-.73-.22,.27-.44,.55-.66,.82-3.28,4.03-7.02,7.69-10.98,11.05-1,.84-2.01,1.67-3.03,2.48-.24,.19-.47,.37-.71,.55-.6,.47,1.22-.93,.61-.47-.12,.09-.24,.18-.36,.27-.51,.39-1.03,.77-1.54,1.16-2.02,1.49-4.08,2.92-6.18,4.31-6.66,4.4-13.65,8.21-20.63,12.08-2.03,1.12-4.34,2.27-6,3.93-2.24,2.25-2.99,5.67-1.34,8.52,2.17,3.76,6.52,3.84,10.12,2.53,1.24-.45,2.46-.96,3.68-1.47,1.1-.46,2.19-.92,3.29-1.39,.22-.09,1.47-.62,.52-.22-.88,.37-.18,.08,0,0,.33-.14,.66-.28,1-.42,3.77-1.58,7.58-3.09,11.46-4.39,3.62-1.22,7.29-2.27,11.01-3.15,2.63-.62,5.28-1.16,7.94-1.61,.68-.11,1.36-.22,2.04-.33,.35-.05,.7-.1,1.05-.15,.18-.03,.35-.05,.53-.07,.83-.12-1.5,.19-.66,.09,1.61-.19,3.22-.38,4.83-.52,7.24-.63,14.55-.58,21.77,.27,.25,.03,1.71,.22,.71,.08s.47,.07,.72,.11c1.07,.16,2.13,.34,3.19,.54,1.94,.36,3.86,.78,5.77,1.27,2.05,.52,4.07,1.11,6.08,1.77,1.03,.34,2.05,.7,3.06,1.07s2.16,.66,3.06,1.2c-.05-.03-1.06-.46-.38-.16,.24,.1,.47,.2,.71,.31,.55,.24,1.1,.5,1.65,.75,.93,.43,1.84,.88,2.75,1.35,1.55,.8,3.08,1.65,4.58,2.56s2.87,1.81,4.26,2.78c.63,.44,1.25,.89,1.86,1.35,.15,.11,.3,.23,.45,.34,.57,.42-.62-.48-.57-.44,.38,.32,.79,.62,1.18,.94,4.69,3.81,8.94,8.15,12.71,12.87,.2,.26,.4,.51,.61,.77,.49,.62-.89-1.18-.42-.55,.1,.13,.19,.26,.29,.38,.41,.55,.82,1.1,1.22,1.66,.78,1.08,1.53,2.17,2.26,3.28,1.34,2.04,2.61,4.12,3.8,6.25,1.01,1.8,1.96,3.64,2.85,5.5,.39,.82,.77,1.64,1.14,2.47,.17,.38,.33,.76,.49,1.13,.4,.91-.53-1.28-.38-.9,.07,.19,.15,.37,.23,.55,.69,1.68,1.32,3.39,1.91,5.11,1.17,3.47,2.13,7,2.8,10.6,.18,.95,.33,1.9,.47,2.85,.19,1.25-.14-1.24,0,0,.06,.5,.11,1.01,.16,1.51,.18,1.84,.29,3.69,.33,5.54,.08,3.55-.1,7.11-.52,10.64-.03,.26-.21,1.63-.06,.52s-.04,.24-.08,.5c-.14,.9-.29,1.8-.46,2.7-.31,1.63-.67,3.25-1.07,4.86-.76,3.02-1.68,6.01-2.74,8.93-.51,1.42-1.07,2.82-1.64,4.22-.43,1.05,.58-1.34,.13-.31-.16,.36-.31,.72-.47,1.07-.29,.65-.59,1.3-.89,1.94-2.11,4.49-4.54,8.83-7.23,13-1.68,2.61-3.48,5.15-5.35,7.62-.95,1.26-1.05,3.58-.66,5.02s1.58,3.15,2.99,3.89c1.51,.8,3.34,1.2,5.02,.66s2.81-1.56,3.89-2.99c5.07-6.69,9.49-13.87,12.99-21.51,5.89-12.84,9.52-26.76,9.17-40.97-.25-9.9-2.36-19.73-6.13-28.88-3.79-9.21-8.7-17.68-14.84-25.53-8.42-10.76-19.37-19.63-31.87-25.2-15.44-6.88-32.33-9.66-49.18-8.53-10.61,.71-21.16,2.71-31.27,5.99-3.45,1.12-6.84,2.4-10.2,3.77-2.14,.87-4.27,1.77-6.4,2.67-.42,.18-.85,.36-1.27,.54-.07,.03,1.35-.57,.7-.29-.17,.07-.33,.14-.5,.21-.7,.29-1.41,.59-2.11,.87-.95,.38-1.91,.72-2.89,1.02-1.31,.4,1.55-.1,.83-.09l1.57,.21,3.7,2.86c.43,.73,.64,1.54,.75,2.35s.12,1.67-.11,2.47c-.18,.65-.88,2.37-1.52,2.61,.07-.03,.19-.18,.24-.24,.69-.73-.96,.72-.93,.7,.17-.09,.32-.23,.48-.33,2.04-1.37,4.26-2.49,6.42-3.67,3.45-1.89,6.89-3.8,10.28-5.81,9.04-5.37,17.82-11.44,25.48-18.67,8.2-7.75,15.27-17.25,18.38-28.23,4.45-15.69-.19-32.89-10.52-45.23-10.28-12.29-26.8-17.47-42.43-17.01s-30.99,5.4-41.72,16.21c-6.11,6.16-10.14,13.89-13.15,21.95-3.58,9.59-5.58,19.73-7.22,29.8-2.32,14.27-3.86,28.66-5.33,43.04-1.69,16.52-3.52,33.07-4.15,49.67-.43,11.34-.27,22.67,1.28,33.92,.92,6.69,2.5,13.25,4.99,19.54s5.17,11.78,8.51,17.29l-.89-3.29c0,3.02,2.54,6.04,4.19,8.47s3.23,4.53,4.93,6.73c2.58,3.33,5.32,6.53,8.24,9.56,4.26,4.42,8.9,8.44,13.82,12.1,7.46,5.54,15.6,10.02,24.16,13.6,15.43,6.46,32.57,9.21,49.22,7.26,10.17-1.19,20.05-3.7,29.51-7.65,15.1-6.31,28.89-15.56,39.68-27.95,1.78-2.04,3.44-4.17,5.09-6.32,.95-1.25,1.05-3.58,.66-5.02-.42-1.51-1.58-3.15-2.99-3.89-1.51-.8-3.34-1.2-5.02-.66s-2.8,1.57-3.89,2.99Z"/><path class="d" d="M160.7,113.88c10.58-.54,21.16-2.15,31.35-5.05,14.41-4.1,27.92-10.81,39.67-20.13s20.81-20.64,28.19-33.04c3.58-6.02,6.72-12.44,8.78-19.15,1.81-5.91,2.71-12.23,1.5-18.35-2.82-14.2-20.16-21.34-33.13-16.81-10.8,3.78-18.04,13.82-22.58,23.87-5.8,12.86-8.56,27.01-8.86,41.08-.32,14.82,2.37,29.55,8.63,43.03,5.37,11.56,13.38,21.92,22.73,30.55,6.64,6.13,14.01,11.55,21.84,16.06,1.02,.59,2.04,1.16,3.08,1.71,2.25,1.21,5.42,.64,6.68-1.75s.65-5.39-1.75-6.68-4.84-2.71-7.18-4.19c-1.63-1.03-3.23-2.09-4.8-3.2-.9-.63-1.79-1.27-2.67-1.93-.43-.32-.85-.64-1.28-.96-.62-.47,.91,.72,.09,.07-.27-.21-.54-.42-.81-.63-4.09-3.25-7.97-6.78-11.55-10.58-2.01-2.13-3.93-4.34-5.74-6.63-.1-.13-.2-.26-.3-.38-.41-.51,.56,.75,.17,.22-.2-.26-.39-.52-.59-.78-.49-.66-.98-1.32-1.45-1.99-.9-1.28-1.78-2.57-2.61-3.89-1.7-2.69-3.26-5.46-4.66-8.32-.37-.75-.72-1.5-1.07-2.26-.15-.33-.3-.66-.44-.99-.1-.22-.19-.44-.29-.66-.28-.63,.33,.81,.07,.16-.64-1.6-1.26-3.2-1.82-4.84-1.12-3.29-2.04-6.65-2.74-10.06-.33-1.6-.62-3.2-.86-4.82-.02-.15-.22-1.52-.12-.79,.1,.68-.07-.56-.1-.8-.1-.85-.19-1.7-.27-2.55-.64-6.81-.59-13.69,.08-20.5,.08-.78,.16-1.56,.25-2.35,.05-.42,.08-.84,.16-1.26,0,.01-.14,.97-.05,.4,.04-.3,.08-.59,.13-.89,.24-1.59,.51-3.18,.81-4.75,.62-3.19,1.38-6.35,2.3-9.46,.45-1.5,.93-2.99,1.45-4.47,.24-.67,.48-1.34,.74-2,.14-.35,.27-.71,.41-1.06,.09-.22,.54-1.47,.3-.76s.19-.43,.26-.59c.13-.29,.26-.58,.39-.86,.32-.71,.66-1.41,1-2.11,.61-1.22,1.25-2.42,1.93-3.6s1.4-2.32,2.17-3.43c.37-.54,.75-1.07,1.14-1.6,.08-.11,.17-.22,.25-.33,.31-.42-.38,.48-.34,.45,.25-.25,.46-.57,.68-.84,.78-.95,1.61-1.86,2.49-2.72,.82-.81,1.87-1.49,2.63-2.33-.33,.37-.83,.62-.21,.17,.23-.16,.46-.33,.69-.49,.49-.34,.99-.66,1.5-.96,.44-.26,.88-.5,1.33-.72,.24-.12,.48-.23,.73-.35,.1-.05,.21-.09,.31-.14,.47-.24-1.25,.47-.43,.19,1.02-.36,2.02-.71,3.08-.94,.33-.07,.87-.07,1.18-.22-.01,0-1,.11-.44,.06,.23-.02,.46-.05,.69-.07,.81-.07,1.63-.09,2.44-.07,.41,.01,.82,.03,1.23,.06,.2,.02,1.51,.19,.76,.07s.39,.07,.58,.11c.46,.09,.93,.19,1.39,.3,.74,.18,1.48,.4,2.2,.66,.14,.05,1.39,.53,.73,.26-.61-.24-.05-.02,.06,.03,.26,.12,.53,.25,.79,.38,.67,.34,1.32,.71,1.95,1.11,.34,.22,.66,.45,.99,.68,.46,.31-.32-.25-.31-.25,.22,.07,.48,.4,.64,.55,.54,.48,1.06,.99,1.53,1.54,.11,.12,.21,.26,.32,.38,.45,.47-.5-.75-.16-.2,.18,.29,.39,.56,.56,.84,.28,.45,.51,.91,.76,1.38,.06,.11,.1,.22,.15,.33,.29,.51-.4-1.06-.2-.5,.09,.27,.21,.53,.3,.8,.39,1.12,.54,2.26,.82,3.4,0-.04-.14-1.32-.08-.53,.01,.13,.03,.26,.04,.39,.03,.31,.05,.61,.07,.92,.03,.63,.04,1.25,.03,1.88s-.05,1.3-.1,1.94c-.02,.28-.05,.57-.08,.85-.02,.19-.06,.39-.07,.57,0-.18,.17-1.11,.05-.43-.48,2.87-1.19,5.67-2.14,8.42-.23,.68-.48,1.35-.73,2.03-.14,.37-.28,.73-.43,1.1-.13,.32-.76,1.55-.16,.41-.73,1.38-1.28,2.88-1.97,4.28-3.03,6.13-6.7,11.95-10.76,17.45-.47,.64-.95,1.28-1.43,1.91-.07,.09-.45,.58-.06,.09,.41-.53-.08,.1-.18,.23-.26,.33-.52,.67-.79,1-1.04,1.3-2.11,2.59-3.2,3.85-2.06,2.39-4.21,4.7-6.46,6.91-1.4,1.37-2.84,2.7-4.31,3.98-.69,.6-1.38,1.18-2.08,1.76-.37,.31-.75,.61-1.13,.91-.16,.13-.33,.25-.49,.38-.45,.36,.58-.44-.15,.12-2.92,2.21-5.95,4.28-9.09,6.17s-6.18,3.5-9.39,5.01c-.72,.34-1.45,.67-2.18,1-.39,.17-.78,.34-1.17,.51-.05,.02-.47,.24-.5,.21,.56-.23,.67-.28,.33-.14-.11,.05-.22,.09-.33,.14-1.53,.63-3.08,1.23-4.63,1.79-5.67,2.05-11.5,3.66-17.41,4.86-2.6,.53-5.21,.98-7.84,1.35-.26,.04-.53,.07-.79,.11,1.6-.24,.51-.07,.14-.02-.63,.08-1.26,.16-1.88,.23-1.1,.13-2.21,.24-3.32,.34-1.86,.17-3.72,.3-5.58,.39-2.55,.13-5.01,2.15-4.89,4.89,.11,2.53,2.15,5.03,4.89,4.89h0Z"/><path class="d" d="M384.76,145.21c-6.71,10.72-23.32,11.64-32.7,4.37-6.48-5.03-7.89-12.73-8.24-15.22-.17,1.42-1.63,11.96-11.06,17.71-8.69,5.3-20.65,4.39-26.61-1.83-7.72-8.06-6.49-26.18,8.13-37.34-18.03-1.72-28.31-16.35-25.93-26.86,1.92-8.46,12.37-15.59,22.79-14.8,7.73,.58,12.83,5.33,14.42,6.94-.68-2.41-3.11-12.03,2.04-21.74,1.33-2.51,6.69-12.59,16.47-13.14,9.17-.51,16.37,7.7,19.13,14.64,3.85,9.7-.32,18.61-1.13,20.24,2.8-1.66,9.89-5.35,19.09-4.44,2.53,.25,16.06,1.58,19.46,10.81,3.18,8.64-4.73,18.12-9.98,22.29-6.72,5.33-14.19,5.98-17.29,6.07,13.44,6.27,17.72,22.2,11.4,32.31Z"/><path class="d" d="M507.18,145.21c-6.71,10.72-23.32,11.64-32.7,4.37-6.48-5.03-7.89-12.73-8.24-15.22-.17,1.42-1.63,11.96-11.06,17.71-8.69,5.3-20.65,4.39-26.61-1.83-7.72-8.06-6.49-26.18,8.13-37.34-18.03-1.72-28.31-16.35-25.93-26.86,1.92-8.46,12.37-15.59,22.79-14.8,7.73,.58,12.83,5.33,14.42,6.94-.68-2.41-3.11-12.03,2.04-21.74,1.33-2.51,6.69-12.59,16.47-13.14,9.17-.51,16.37,7.7,19.13,14.64,3.85,9.7-.32,18.61-1.13,20.24,2.8-1.66,9.89-5.35,19.09-4.44,2.53,.25,16.06,1.58,19.46,10.81,3.18,8.64-4.73,18.12-9.98,22.29-6.72,5.33-14.19,5.98-17.29,6.07,13.44,6.27,17.72,22.2,11.4,32.31Z"/><path class="d" d="M549.75,38.21v99.54c0,4.57-.1,9.15,0,13.72,0,.07,0,.13,0,.2,0,3.41,3,6.67,6.51,6.51s6.51-2.86,6.51-6.51V80.46c0-9.45,0-18.89,0-28.34,0-4.57,.1-9.15,0-13.72,0-.07,0-.13,0-.2,0-3.41-3-6.67-6.51-6.51s-6.51,2.86-6.51,6.51h0Z"/><path class="d" d="M562.64,96.69c.03-.29,.07-.57,.1-.86,0,0,.19-1.4,.08-.62-.09,.66,.04-.24,.06-.4,.05-.35,.1-.7,.16-1.05,.19-1.23,.41-2.46,.65-3.69,.45-2.29,.98-4.56,1.61-6.81,.59-2.13,1.26-4.24,2.01-6.32,.37-1.03,.77-2.04,1.18-3.05,.1-.24,.31-.89-.09,.2,.08-.22,.19-.44,.28-.65,.23-.53,.47-1.07,.72-1.59,1.61-3.46,3.49-6.79,5.67-9.92,.26-.37,.53-.75,.8-1.12,.24-.32,1.22-1.39,.21-.3,.59-.64,1.09-1.37,1.66-2.03,1.08-1.25,2.23-2.46,3.44-3.59,.51-.48,1.03-.94,1.57-1.39,.29-.25,.59-.49,.89-.73,.16-.13,.64-.51,0,0-.72,.57,.04-.02,.19-.13,1.12-.82,2.29-1.57,3.5-2.23,.56-.31,1.13-.59,1.71-.86,.16-.08,.34-.14,.5-.22,.01,0-1.28,.5-.59,.25,.33-.12,.66-.26,1-.38,1.14-.4,2.28-.65,3.46-.9,.96-.2-1.45,.13-.26,.03,.26-.02,.51-.05,.77-.06,.57-.03,1.14-.04,1.71-.01,.28,.01,.56,.04,.84,.06,.21,.01,.7,.08-.15-.03-1.01-.13-.03,0,.15,.04,.85,.16,1.69,.4,2.5,.7,.17,.06,.37,.17,.54,.21-1.04-.23-.76-.34-.4-.16,.39,.2,.78,.38,1.16,.59,.77,.42,1.49,.91,2.21,1.41,.39,.27,.53,.68-.19-.16,.11,.13,.33,.26,.46,.37,.3,.25,.6,.51,.89,.77,.66,.59,1.29,1.22,1.9,1.87,.67,.72,1.31,1.46,1.93,2.23,.12,.15,.23,.32,.36,.46-.94-1.05-.29-.37-.08-.08,.28,.38,.56,.77,.83,1.16,1.02,1.47,1.96,2.99,2.83,4.55,1.18,2.1,2.24,4.27,3.18,6.49l-.68-2.52v87.2c0,2.61,2.29,5.1,4.98,4.98s4.98-2.19,4.98-4.98v-29.48c0-8.37,0-16.75,0-25.12s0-14.56,0-21.84c0-3.52,.17-7.08,0-10.6,0-.05,0-.11,0-.16l-.68,2.52c1.27-2.21,2.64-4.36,4.15-6.41,.16-.22,.33-.43,.49-.65-.59,.8-.17,.22-.04,.05,.33-.41,.67-.83,1.01-1.23,.79-.94,1.61-1.85,2.46-2.73,.73-.76,1.49-1.49,2.27-2.19,.36-.32,.72-.64,1.09-.95,.23-.19,.46-.38,.69-.57,.56-.45,.43-.16-.04,.02,.86-.34,1.72-1.24,2.51-1.75s1.67-1.01,2.54-1.45c.37-.19,.75-.38,1.14-.55,.13-.06,.44-.15,.57-.25-.66,.52-.78,.31-.34,.15,.89-.32,1.78-.64,2.7-.88,.79-.21,1.61-.3,2.4-.49-1.5,.35-.39,.06,.08,.03s.93-.05,1.39-.05c.41,0,.83,.02,1.24,.05,.18,.01,.36,.04,.55,.05,.64,.03-1.13-.21-.51-.07,1.14,.25,2.23,.49,3.34,.86,.26,.09,.88,.19-.14-.08,.21,.06,.48,.22,.67,.31,.43,.21,.85,.44,1.26,.68,.44,.26,.87,.53,1.29,.83,.07,.05,.68,.44,.66,.48,.01-.04-.95-.78-.15-.1,1.11,.94,2.15,1.95,3.12,3.05,.25,.29,.5,.58,.75,.87,.01,.02,.33,.4,.33,.41,0,0-.98-1.33-.36-.45,.81,1.15,1.5,2.34,2.09,3.62,.37,.81-.49-1.23-.25-.6,.07,.18,.14,.36,.21,.55,.15,.4,.29,.81,.42,1.22,.26,.82,.48,1.66,.66,2.51,.21,.96,.38,1.92,.52,2.89,.17,1.07-.15-1.19-.05-.42,.03,.28,.07,.57,.1,.85,.07,.63,.13,1.26,.19,1.9,.56,6.49,.44,13.05,.26,19.56-.28,9.99-1.01,19.96-1.36,29.95-.31,8.85,.24,17.71,4.26,25.77,3.95,7.91,10.81,15.05,20.24,15.08,5.12,.01,10.18-2.05,14.28-5.02s7.59-6.5,10.14-10.8c4.48-7.57,5.3-16.74,3.53-25.23-.16-.75-.34-1.5-.55-2.23-.73-2.5-3.54-4.32-6.13-3.48s-4.27,3.45-3.48,6.13c.17,.59,.32,1.18,.46,1.78,.11,.48,.2,.97,.29,1.46,.05,.26,.09,.53,.13,.79,.21,1.28-.1-1.06,0,.05,.14,1.48,.24,2.94,.21,4.43-.02,.84-.06,1.67-.14,2.5-.02,.21-.09,.49-.08,.69,0,0,.16-1.02,.06-.45-.09,.54-.18,1.07-.29,1.61-.18,.86-.4,1.72-.66,2.56-.15,.5-.32,.99-.51,1.48-.07,.19-.15,.37-.22,.56-.21,.55,.38-.74-.06,.11s-.88,1.75-1.39,2.58c-.31,.5-.63,.98-.97,1.46-.05,.07-.36,.52-.37,.51,.02,0,.69-.86,.18-.23-1.17,1.43-2.44,2.77-3.82,4-.33,.29-.67,.57-1.01,.86-.27,.23-.43,.59,.11-.07-.1,.13-.33,.24-.46,.34-.83,.6-1.69,1.16-2.59,1.67-.39,.22-.79,.43-1.19,.63-.23,.11-.46,.22-.69,.33-.64,.31,.04,.15,.14-.05-.09,.18-1.1,.4-1.25,.45-.54,.17-1.09,.32-1.64,.44-.22,.05-1.54,.19-.82,.16s-.59,.02-.83,.03c-.44,.01-.88,0-1.32-.03-.18-.01-.99-.13-.28-.01,.79,.13-.43-.1-.47-.11-.43-.1-.86-.22-1.28-.36-1.19-.4,.45,.28-.33-.11-.84-.42-1.62-.9-2.4-1.42-.6-.4,.04,.17,.21,.16-.06,0-.5-.43-.5-.43-.28-.25-.56-.51-.83-.78-.55-.55-1.05-1.14-1.55-1.73s.66,.9-.09-.13c-.18-.25-.36-.51-.54-.77-.35-.52-.69-1.05-1.02-1.58-.42-.68-.83-1.37-1.2-2.08-.19-.35-.37-.71-.54-1.06-.07-.15-.15-.3-.22-.46-.06-.12-.57-.97-.16-.32s-.16-.41-.25-.63c-.16-.41-.3-.82-.44-1.24-.27-.83-.52-1.67-.72-2.52-.18-.75-.34-1.5-.48-2.25-.08-.43-.1-.89-.21-1.31,0-.01,.13,1.06,.07,.49-.03-.28-.07-.56-.1-.84-.87-8.08,0-16.32,.42-24.4,.4-7.84,.77-15.69,.83-23.54,.04-4.97,0-9.97-.58-14.9-.41-3.53-.95-7.08-2.32-10.39-3.95-9.56-13.53-17.38-24.23-16.95-7.5,.31-14.23,3.94-19.86,8.68-3.16,2.67-5.86,5.78-8.35,9.07-1.31,1.73-2.52,3.52-3.65,5.37-.82,1.35-1.59,2.64-1.67,4.27-.22,4.43,0,8.93,0,13.37,0,9.18,0,18.36,0,27.54s0,19.11,0,28.67c0,5.58,0,11.17,0,16.75v.8c0,2.61,2.29,5.1,4.98,4.98s4.98-2.19,4.98-4.98V71.72c0-2.66,.36-5.56-.7-8.04-.23-.54-.46-1.08-.71-1.61-.8-1.76-1.68-3.49-2.64-5.17-5.33-9.38-14.26-19.42-26.1-18.57-9.85,.7-18.35,7.18-24.32,14.67-8.49,10.66-13.55,23.7-15.79,37.08-.37,2.19-.66,4.4-.92,6.61-.3,2.6,2.51,5.09,4.98,4.98,2.96-.13,4.66-2.2,4.98-4.98h0Z"/><path class="d" d="M114.35,91.72c-8.15,18.97-26.87,24.78-29.62,25.58,23.64-14.9,27-45.8,12.68-62.01-12.1-13.7-36.52-16.55-55.14-3.05,18.7-20.86,48.07-22.35,63.81-8.12,12.76,11.54,14.98,31.98,8.26,47.6Z"/><path class="d" d="M59.28,42.78c-4.98,1.42-12.23,4.3-18.19,10.64-7.79,8.31-9.6,18.57-11.98,44.35-1.54,16.7-2.2,27.72-2.88,37.92-2.72,40.36-4.4,44.94-3.77,63.43,.52,15.31,.84,24.87,4.44,37.26,6.06,20.9,17.32,35.62,25.06,44.13-6.21-2.99-15.01-8.2-23.4-17-5.12-5.38-8.78-10.72-11.36-15.2,0,0-1.67-3.21-3.16-6.61-11.27-25.74-5.32-82.84-5.32-82.84,4.5-30.57,9-61.14,13.5-91.71,1.64-3.52,5.63-10.82,13.88-16.65,9.6-6.79,19.32-7.61,23.17-7.73Z"/><path class="d" d="M85.23,136.81c4.34-2.27,37.25-18.76,73.99-3.01,4.26,1.83,36.18,16.13,47.54,51.8,15.6,48.95-24.08,89.3-25.73,90.93-33.38,32.92-94.53,41.64-130.4,9.31-27.73-25-27.61-63.05-27.43-70.76,2.1,8.65,6.55,21.66,16.78,33.94,20.36,24.44,60.51,42.31,98.13,26.28,31.72-13.52,57.16-49.22,49.12-84.83-8.7-38.54-54.28-66.62-102.01-53.67Z"/><path class="d" d="M704.99,38.79c-3.96,22.37-5.69,45.46-2.12,68,1.36,8.58,3.66,17.02,7.42,24.88,3.46,7.21,8.38,13.24,14.88,17.89s13.92,7.85,21.68,8.66c10.16,1.07,20.33-2.35,28.94-7.54,6.45-3.89,11.85-8.59,16.35-14.64,5-6.7,8.48-14.51,11.08-22.42,6.61-20.12,7.61-42.12,5.97-63.1-.24-3.03-.54-6.06-.89-9.08-.3-2.58-2.08-5.11-4.98-4.98s-4.85,2.19-4.98,4.98c-.75,15.73-1.32,31.47-1.72,47.22-.54,21.23-.78,42.48-.72,63.72s.46,41.01,.95,61.51c.3,12.33,.78,24.71,.25,37.04-.09,2.16-.23,4.32-.43,6.48-.09,.98-.2,1.96-.32,2.94s-.02,.03,.06-.42c-.04,.23-.06,.46-.1,.69-.07,.49-.15,.97-.23,1.45-.56,3.3-1.37,6.55-2.57,9.68-.14,.37-.29,.73-.44,1.1-.25,.65,.6-1.34,.21-.49-.08,.18-.16,.36-.24,.54-.34,.74-.69,1.47-1.07,2.2-.75,1.42-1.57,2.81-2.45,4.15-.46,.7-.94,1.39-1.43,2.07-.18,.25-.36,.49-.54,.74-.13,.17-.26,.34-.39,.51,0,.01,.64-.8,.29-.37-.51,.62-1,1.26-1.52,1.87-1.94,2.31-4.05,4.48-6.27,6.52-1.13,1.03-2.28,2.02-3.47,2.98-.3,.24-.6,.48-.9,.72-.9,.72,.53-.39-.17,.13-.62,.46-1.24,.92-1.87,1.37-2.6,1.86-5.3,3.56-8.08,5.14s-5.67,3.03-8.6,4.35c-.37,.17-.74,.33-1.12,.5-.18,.08-1.39,.6-.69,.3s-.37,.15-.54,.22c-.43,.18-.87,.35-1.31,.53-1.59,.63-3.2,1.23-4.82,1.8-6.4,2.24-12.98,3.99-19.63,5.32-1.69,.34-3.39,.65-5.09,.94-.85,.14-1.71,.28-2.57,.41-.43,.07-.86,.13-1.29,.19-.18,.03-.37,.05-.55,.08-.16,.02-1.23,.17-.44,.06,.74-.1-.66,.08-.82,.1-.37,.05-.74,.09-1.11,.14-.93,.11-1.85,.21-2.78,.31-1.73,.18-3.47,.34-5.21,.47-6.98,.53-13.99,.66-20.99,.41-3.41-.12-6.81-.33-10.21-.64-1.73-.16-3.46-.34-5.19-.54-.77-.09-1.53-.19-2.3-.29,1.02,.13,.27,.04-.26-.04-.47-.07-.93-.13-1.4-.2-6.33-.95-12.62-2.24-18.79-3.97-2.86-.8-5.7-1.7-8.49-2.7-1.34-.48-2.68-.99-4-1.53-.32-.13-.65-.27-.97-.4-.51-.2,.55,.22,.5,.21-.16-.03-.39-.16-.55-.23-.63-.28-1.25-.55-1.88-.84-4.72-2.17-8.94-4.87-13.23-7.76-.17-.12,.92,.73,.12,.09-.23-.18-.45-.36-.68-.55-.44-.36-.88-.73-1.3-1.11-.86-.76-1.69-1.55-2.49-2.38-.74-.77-1.45-1.57-2.13-2.4-.14-.17-.76-.95-.17-.2s.05,.06-.08-.12c-.32-.45-.64-.89-.94-1.35-2.17-3.31-3.55-6.73-4.56-10.56-.32-1.23-.6-2.48-.82-3.74-.05-.26-.09-.52-.13-.78-.02-.11-.16-1.17-.09-.61,.06,.49-.03-.32-.03-.34-.04-.41-.08-.81-.12-1.22-.17-2.04-.22-4.08-.14-6.12,.03-.78,.08-1.57,.15-2.35,.03-.37,.07-.74,.11-1.11,.02-.15,.04-.29,.05-.44,.11-1.01-.15,.93-.05,.39,.15-.8,.25-1.61,.43-2.4,.31-1.36,.75-2.7,1.24-4,.08-.23,.52-1.3,.21-.57,.21-.5,.45-1,.68-1.49,.5-1.03,1.05-2.04,1.63-3.02,.5-.83,1.02-1.64,1.58-2.44,.29-.42,.59-.83,.9-1.25,.04-.05,.48-.62,.14-.18-.39,.5,.34-.41,.41-.5,1.23-1.49,2.54-2.91,3.93-4.25,1.27-1.23,2.61-2.41,3.99-3.52,.18-.15,1.15-.9,.6-.48s.4-.29,.58-.43c.6-.44,1.2-.87,1.81-1.29,1.91-1.32,3.88-2.58,5.9-3.73,1.03-.59,2.08-1.13,3.15-1.64,.27-.13,.54-.25,.81-.37,.22-.1,1.1-.63,.34-.16-.7,.44,0,0,.24-.09,.32-.12,.64-.25,.96-.37,2.34-.88,4.75-1.58,7.19-2.13,1.24-.28,2.49-.52,3.74-.73,.32-.05,.64-.1,.96-.15,.41-.06,1.48-.07-.08,0,.65-.03,1.31-.16,1.96-.23,5.61-.59,11.27-.6,16.89-.26,3.02,.18,6.03,.46,9.03,.82,.77,.09,1.55,.2,2.32,.29,.57,.07-.51-.06-.49-.07,.18-.02,.51,.07,.67,.09,.45,.06,.9,.13,1.34,.19,1.59,.23,3.18,.48,4.76,.75,6.66,1.12,13.28,2.51,19.86,4.03,14.42,3.35,28.69,7.34,42.97,11.25,14.82,4.06,29.67,8.07,44.68,11.37s29.68,5.83,44.75,6.8c13.76,.89,27.75,.33,41.2-2.86,15.11-3.59,29.05-10.86,40.39-21.52,5.22-4.91,9.82-10.49,13.81-16.44,1.5-2.24,.43-5.52-1.79-6.82-2.45-1.43-5.32-.45-6.82,1.79-.74,1.11-1.51,2.21-2.3,3.29-.23,.31-.46,.62-.69,.93-.31,.42-.58,.74-.07,.1-.59,.75-1.18,1.49-1.79,2.22-2.79,3.36-5.83,6.52-9.09,9.43-5.71,5.08-12.47,9.41-19.82,12.68-.36,.16-.73,.31-1.09,.47-.62,.27,.89-.35,.25-.11-.16,.06-.31,.13-.47,.19-.79,.32-1.58,.63-2.38,.92-1.54,.57-3.1,1.1-4.68,1.59-3.12,.96-6.29,1.76-9.49,2.41-1.59,.32-3.19,.61-4.8,.85-.4,.06-.81,.12-1.21,.18-.23,.03-.46,.06-.7,.1,0,0,1.03-.13,.45-.06-.88,.1-1.75,.22-2.63,.31-3.39,.36-6.79,.59-10.2,.69-7.07,.22-14.15-.07-21.2-.71-1.85-.17-3.69-.36-5.53-.57-.83-.1-1.66-.2-2.5-.3-.45-.06-.9-.12-1.35-.17-.25-.03-.98-.13,.17,.02-.26-.03-.51-.07-.77-.11-3.7-.51-7.4-1.1-11.08-1.75-15.25-2.7-30.3-6.42-45.26-10.39s-29.44-8.12-44.23-11.93c-13.43-3.46-26.98-6.66-40.73-8.54-12.23-1.67-24.61-2.43-36.83-.24-10.86,1.94-20.41,7.03-28.92,13.93-6.73,5.47-12.16,12.35-15.45,20.4-2.31,5.65-2.99,11.85-2.71,17.92,.41,8.84,2.83,18.18,8.1,25.41,3.1,4.26,6.84,7.74,11.08,10.85,9.2,6.75,20.29,11,31.23,13.98,13.19,3.59,26.93,5.37,40.57,5.8,14.49,.46,29.09-.7,43.3-3.6,13.5-2.75,26.85-7.23,38.84-14.08,10.81-6.17,20.54-14.46,27.48-24.86,3.9-5.84,6.44-12.48,7.65-19.39,1.69-9.64,1.7-19.5,1.61-29.25-.15-16.14-.72-32.27-1.01-48.4-.41-22.89-.49-45.79-.22-68.68,.23-18.83,.69-37.65,1.4-56.47,.26-6.96,.56-13.92,.89-20.88h-9.97c1.3,11.13,1.85,22.36,1.37,33.56-.11,2.53-.27,5.05-.49,7.57-.1,1.19-.22,2.37-.35,3.56-.07,.67-.15,1.33-.23,2-.03,.26-.26,2-.14,1.14-.64,4.64-1.5,9.24-2.62,13.79-1.03,4.18-2.29,8.3-3.83,12.31-.17,.45-.35,.9-.53,1.35-.14,.34-.6,1.42-.21,.52-.43,.98-.86,1.96-1.33,2.93-.83,1.75-1.73,3.47-2.71,5.15-.9,1.55-1.86,3.06-2.89,4.52-.24,.34-.49,.68-.74,1.02-.14,.19-.29,.38-.43,.57,.01-.01,.59-.73,.24-.31-.59,.72-1.17,1.44-1.79,2.14-1.08,1.23-2.23,2.4-3.44,3.49-.57,.52-1.15,1.02-1.75,1.5-.17,.14-.34,.27-.51,.41,.09-.07,.93-.67,.23-.19-.35,.24-.69,.51-1.05,.75-2.68,1.85-5.47,3.57-8.38,5.04-.88,.45-1.78,.86-2.68,1.26-.7,.31,.69-.28-.03,.01-.21,.08-.42,.17-.63,.25-.64,.25-1.29,.49-1.95,.71-2.24,.76-4.54,1.33-6.88,1.69,.77-.12-.08,.01-.2,.02-.35,.03-.69,.07-1.04,.1-.62,.05-1.23,.08-1.85,.1-1.37,.04-2.74,0-4.1-.12-.27-.02-.92,0-1.12-.12,0,0,.76,.12,.74,.1-.03-.02-.13-.02-.17-.03-.34-.08-.7-.13-1.04-.2-1.29-.27-2.56-.63-3.81-1.04-.92-.3-1.83-.63-2.73-.98-.28-.11-1.18-.51-.43-.17-.65-.29-1.29-.58-1.93-.9-4.04-1.99-7.69-4.37-10.78-7.53-.5-.51-.99-1.04-1.46-1.59-.24-.28-.47-.56-.71-.84-.13-.16-.26-.33-.4-.49-.41-.48,.71,1.01,.1,.12-.91-1.32-1.83-2.62-2.65-4-.89-1.51-1.7-3.07-2.44-4.67-.18-.39-.35-.77-.53-1.16-.1-.23-.2-.45-.29-.68,.01,.03,.34,.86,.14,.33-.33-.89-.7-1.76-1.03-2.66-1.4-3.84-2.47-7.8-3.32-11.8-.45-2.1-.83-4.21-1.16-6.33-.08-.53-.16-1.06-.23-1.58-.14-.99-.04-.26,0-.05-.04-.31-.08-.62-.12-.93-.15-1.18-.28-2.35-.39-3.53-.48-4.91-.71-9.84-.75-14.77-.04-5.34,.14-10.69,.52-16.02s1.01-11.37,1.72-16.33c.43-3.02,.92-6.03,1.45-9.03,.45-2.56-.69-5.49-3.48-6.13-2.43-.55-5.64,.74-6.13,3.48h0Z"/><path class="d" d="M613.23,304.66c17.41,4.83,51.18,11.48,90.51,.91,13.84-3.72,33.66-9.42,52.26-25.53,34.77-30.11,38.02-75.71,38.49-88.79,6.47,2.74,12.95,5.47,19.42,8.21,.29,7.61,.5,18.32,.06,31.16-.6,17.34-.96,26.18-3.88,34.71-4.99,14.55-14.44,23.23-22.29,30.6-24.04,22.59-52.15,28.33-66.53,31.27-9.92,2.03-35.69,7.03-63.04-.17-15.95-4.19-28.97-11.62-30.44-12.47-6.09-3.52-10.96-7.05-14.55-9.9Z"/><path class="d" d="M633.86,231.81c13.73-1.2,35.3-1.89,60.79,2.91,40.76,7.67,49.06,21.35,93.14,33.93,34.14,9.74,67.75,19.33,99.39,4.21,26.55-12.69,40.07-37.2,46.2-51-11.58,10.44-31.94,25.85-60.76,33.49-37.13,9.83-69.49,1.79-87.82-2.99-42.19-11.01-63.22-30.07-97.81-33.27-24.14-2.23-39.25,4.71-44.49,7.41-3.79,1.96-6.72,3.93-8.65,5.32Z"/><path class="d" d="M606.17,242.37c18.63-9.15,47.02-19.49,80.17-15.97,35.32,3.75,43.46,19.54,93.14,33.93,32.69,9.47,66.9,19.38,99.39,4.21,25.22-11.78,39.03-33.84,45.87-47.56-12.44,10.64-32.84,24.86-60.43,30.05-25.43,4.79-45.8-.53-85.49-11.31-47.64-12.93-73.53-26.84-110.11-25.73-9.26,.28-21.47,1.6-34.51,8.18-14.37,7.25-23.28,17.64-28.03,24.2Z"/><path class="d" d="M656.06,230.95c-1.76,0-4.27,.09-7.24,.48-4.22,.55-12.4,1.61-20.49,6.74-10.43,6.61-14.85,16.18-16.19,19.18-4.19,9.41-4.1,17.91-3.76,22.17-6.04-21.17,2.44-41.76,17.73-49.12,13.24-6.37,27.13-.67,29.94,.55Z"/><path class="d" d="M612.07,288.16c1.85,2.95,4.96,7.16,9.84,10.99,6.48,5.08,12.69,6.84,19.74,8.76,6.17,1.68,15.31,3.52,26.73,3.49-1.86,1.34-14.21,9.97-29.61,6.16-13.48-3.33-23.95-14.86-26.7-29.4Z"/><path class="d" d="M794.49,44.49V114.93c0,9.98,0,19.96,0,29.94s0,20.15,0,30.22v69.16c0,2.71-.03,5.42,0,8.13,0,.12,0,.24,0,.35,0,5.11,4.49,10.01,9.77,9.77s9.77-4.29,9.77-9.77V52.98c0-2.71,.03-5.42,0-8.13,0-.12,0-.24,0-.35,0-5.11-4.49-10.01-9.77-9.77s-9.77,4.29-9.77,9.77h0Z"/><path class="d" d="M763.49,145.9c-.79,.18-1.58,.34-2.38,.48-.46,.08-.92,.16-1.37,.23-.98,.16-.24,.03-.04,.01-1.52,.18-3.05,.3-4.59,.33-1.25,.02-2.5-.01-3.75-.11-.52-.04-1.24,0-1.73-.18,1.13,.43,.42,.05-.02-.02-.32-.05-.63-.11-.95-.17-1.95-.38-3.82-.97-5.68-1.67-1.16-.44,1.04,.48-.07-.03-.34-.16-.68-.31-1.02-.48-.75-.36-1.48-.76-2.2-1.18-.66-.39-1.3-.79-1.94-1.22-.32-.22-.64-.44-.95-.66-.19-.14-.37-.28-.56-.41-.74-.53,.95,.78,.25,.19-1.29-1.07-2.55-2.16-3.73-3.35s-2.37-2.57-3.47-3.93c-.59-.73,.59,.8,.21,.28-.13-.17-.26-.34-.39-.52-.26-.35-.52-.7-.77-1.06-.56-.8-1.11-1.61-1.63-2.43-1.04-1.64-2-3.32-2.89-5.04-.44-.85-.87-1.71-1.27-2.58-.21-.44-.41-.89-.61-1.33-.16-.36-.8-2.22-.33-.74-.64-2.04-1.59-4.01-2.27-6.05-.72-2.15-1.37-4.32-1.96-6.5-1.25-4.69-2.21-9.47-2.92-14.27-.09-.6-.19-1.2-.26-1.8,.02,.14,.14,1.11,.03,.21-.05-.37-.09-.73-.14-1.1-.17-1.36-.31-2.73-.44-4.1-.26-2.69-.44-5.39-.57-8.09-.3-6.35-.26-12.72,.05-19.07,.17-3.4,.42-6.79,.75-10.17,.17-1.77,.36-3.55,.57-5.32,.11-.9,.22-1.79,.34-2.69,.02-.17,.13-.96,0-.05,.08-.6,.17-1.21,.25-1.81,.19-1.36,.23-2.53-.49-3.76-.59-1.01-1.76-1.98-2.92-2.25-2.31-.53-5.62,.71-6.01,3.41-3.36,23.42-3.94,47.73,1.67,70.87,3.93,16.22,11.49,33.35,25.91,42.83,9.79,6.44,21.65,7.22,32.88,4.73,2.5-.55,4.2-3.59,3.41-6.01-.85-2.62-3.33-4.01-6.01-3.41h0Z"/></g></g></g></svg>