<?xml version="1.0" encoding="UTF-8"?><svg xmlns="http://www.w3.org/2000/svg" viewBox="0 0 481.58 469.25"><defs><style>.d{fill:#9b0000;}.d,.e,.f,.g,.h{stroke:#560000;stroke-miterlimit:10;}.d,.e,.h{stroke-width:5px;}.e,.f{fill:#a81a39;}.i{fill:#ffabc5;}.j{fill:#fff8fe;}.f{stroke-width:4.94px;}.k{fill:#560000;}.l{fill:#774c00;}.g{fill:none;stroke-width:4px;}.h{fill:#ffe9d2;}</style></defs><g id="a"/><g id="b"><g id="c"><path class="e" d="M44.53,129.75s10.21,18.6,52.6,29.72c0,0,3.04,.94,19.28,24.45l99.51-73.07C252.38,22.59,130.09-41.14,104.78,70.01c-21.82,27.37-79.26-9.49-60.25,59.74Z"/><path class="f" d="M229.46,119.55c-25.12-19.81-36.65-178.91,71.95-90.58,12.26,12.32,36.01-31.15,68.4-5.48,0,0,17.36,4.98,26.04,6.97,0,0,26.55,22.89-18.38,68.68-63.1,58.66-87.55,16.27-148.01,20.4Z"/><path class="e" d="M332.18,149.15c-9.39-34.35,138.02-161.51,121.04-7.66,.01,1.3,.14,3.5,.85,6.06,4.24,15.23,21.85,16.63,24.66,30.19,.85,4.07,0,7.52-.96,11.49-2.16,8.9-7.08,14.82-9.77,17.62,0,0,11.23,36.78-27.57,44.43-114.54,6.06-96.55-24.53-108.26-102.13Z"/><path class="e" d="M344.94,250.63c11.61-10.62,195.38-34.56,111.92,61.28,0,0,7.66,18.38-7.15,38.29s.51,57.7-65.87,30.13c-94.12-57.5-70.38-83.53-38.91-129.7Z"/><path class="e" d="M230.45,329.73c-22.45,16.99-68.87,184.06,63.64,124.08,27.2-13.27,27.7,5.11,46.86,6.13s54.34-40.46,30.11-84.83c-54-92.84-73.53-62.08-140.6-45.39Z"/><path class="e" d="M168.61,455.02c35.4-10.58,110.77-137.77-35.23-166.95,0,0-101.63,22.61-93.2,55.97,0,0-8.42,39.49,31.92,44.09,0,0-14.81,41.87,41.87,43.4,0,0,6.13,40.85,54.64,23.49Z"/><path class="e" d="M120.1,205.83c-4.12-75.93-142.21-90.57-105.72,0,.01,0-29.6,28.73,4.61,54.96,0,0-39.32,45.31,26.04,60.53,65.36,15.23,98.04-46.56,98.04-46.56l-22.98-68.94Z"/><path class="h" d="M372.12,232.49c0,33.82-17.25,64.13-44.49,84.58-22.38,16.82-51.51,26.98-83.36,26.98-52.33,0-97.31-27.42-117.11-66.7-6.91-13.73-10.75-28.9-10.75-44.85,0-7.82,.92-15.45,2.68-22.81,4.55-.69,11.36-3.17,21.44-8.58,0,0,17.87-10.18,56.17-4.37,0,0,4.09-25.21,26.54-36.36-.29,.84-16.12,45.6,5.63,47.04,21.96,1.45,44.43-1.95,44.43-1.95,0,0-1.54-34.43,21.95-42.19,0,0-7.14,43.66,13.28,38.32,20.43-5.34,37.79,2.91,37.79,2.91,0,0,15.93,7.83,22.92,4.36,1.89,7.62,2.88,15.52,2.88,23.63Z"/><path class="d" d="M370.77,210.28c-.44,.48-.96,.86-1.53,1.16-6.99,3.65-22.92-4.59-22.92-4.59,0,0-17.36-8.68-37.79-3.06-20.42,5.62-13.28-40.34-13.28-40.34-23.49,8.17-21.95,44.42-21.95,44.42,0,0-22.47,3.58-44.43,2.05-21.75-1.52-5.92-48.64-5.63-49.52-22.45,11.74-26.54,38.28-26.54,38.28-38.3-6.12-56.17,4.6-56.17,4.6-10.08,5.69-16.89,8.3-21.44,9.03-13.42,2.15-7.15-12.09-7.15-12.09,.46-4.15,1.55-10.03,4.47-16.3,.63-1.36,1.35-2.74,2.16-4.13,.52-.89,1.04-1.7,1.54-2.44,4.89-7.15,9.35-8.41,16.85-18.5,8.79-11.84,6.03-14.68,13.27-21.95,5.73-5.75,9.38-5.91,24.51-13.28,21.02-10.24,20.62-13.16,28.6-15.32,8.84-2.39,22.69-2.41,43.14,10.42,3.13-1.73,10.56-5.61,16.6-7.87,14.77-5.5,37.59-7.34,55.15,3.07,6.18,3.66,7.33,6.24,10.76,11.06,2.74,3.86,6.94,9.16,16.39,17.62,9.15,8.2,14.38,11.42,18.47,20.03,.63,1.33,2.31,7.79,5.67,20.71,.87,3.35,2.52,9.87,2.6,18.41,.07,6.68-.88,8.03-1.35,8.53Z"/><polygon class="k" points="163.91 243.48 147.61 257.92 160.19 240.14 163.91 243.48 163.91 243.48"/><polygon class="k" points="185.98 251.24 183.82 270.17 180.98 251.33 185.98 251.24 185.98 251.24"/><polygon class="k" points="211.08 242.27 222.51 257.05 207.57 245.83 211.08 242.27 211.08 242.27"/><path class="j" d="M219.42,232.74c-1.7,3.89-5.07,9.99-11.46,14.71-15.19,11.2-34.23,4.79-38.6,3.32-17.41-5.86-26.19-19.74-28.72-24.1,4.06-1.37,12.68-4.25,19.09-6.18,2.98-.89,5.49-1.59,6.84-1.83,3.78-.68,11.71-2.04,20.94-.83,7.61,1,14.22,3.5,19.72,6.47,5,2.69,9.1,5.76,12.19,8.44Z"/><path class="l" d="M207.4,224.83c-3.55,8.19-14.09,13.36-25.81,12-10.97-1.28-19.64-7.91-22.03-15.96,.06-.13,.11-.25,.17-.38,2.98-.89,5.49-1.59,6.84-1.83,3.78-.68,11.71-2.04,20.94-.83,7.61,1,14.22,3.5,19.72,6.47,.06,.17,.12,.35,.17,.53Z"/><path class="k" d="M133.26,230.13c25.77-15.65,71.16-28.57,89.17,4.15l-.4,.3c-3-2.77-6.08-5.29-9.36-7.4-9.86-6.21-21.51-9.05-33.13-8.95-7.88,.16-15.79,1.6-23.49,3.78-7.73,2.12-15.28,5.02-22.54,8.55l-.25-.44h0Z"/><polygon class="k" points="325.03 240.14 337.61 257.92 321.31 243.48 325.03 240.14 325.03 240.14"/><polygon class="k" points="304.24 251.33 301.4 270.17 299.24 251.24 304.24 251.33 304.24 251.33"/><polygon class="k" points="277.64 245.83 262.7 257.05 274.13 242.27 277.64 245.83 277.64 245.83"/><path class="j" d="M265.8,232.74c1.7,3.89,5.07,9.99,11.46,14.71,15.19,11.2,34.23,4.79,38.6,3.32,17.41-5.86,26.19-19.74,28.72-24.1-4.06-1.37-12.68-4.25-19.09-6.18-2.98-.89-5.49-1.59-6.84-1.83-3.78-.68-11.71-2.04-20.94-.83-7.61,1-14.22,3.5-19.72,6.47-5,2.69-9.1,5.76-12.19,8.44Z"/><path class="l" d="M277.82,224.83c3.55,8.19,14.09,13.36,25.81,12,10.97-1.28,19.64-7.91,22.03-15.96-.06-.13-.11-.25-.17-.38-2.98-.89-5.49-1.59-6.84-1.83-3.78-.68-11.71-2.04-20.94-.83-7.61,1-14.22,3.5-19.72,6.47-.06,.17-.12,.35-.17,.53Z"/><path class="k" d="M351.71,230.56c-24.5-11.73-54.76-18.82-79.17-3.38-3.28,2.11-6.36,4.62-9.36,7.4l-.4-.3c13.55-25.1,43.8-22.97,67.14-14.65,7.66,2.8,15.09,6.23,22.03,10.5l-.25,.44h0Z"/><ellipse class="i" cx="162.05" cy="284.03" rx="18.97" ry="11.23"/><ellipse class="i" cx="329.64" cy="284.03" rx="18.97" ry="11.23"/><path class="g" d="M229.46,272.8c1.02,8.51,8.58,14.5,16.34,13.72,6.77-.68,12.48-6.38,13.28-13.72"/></g></g></svg>